<?xml version="1.0" encoding="UTF-8"?>
<svg id="Isometric_Grid" data-name="Isometric Grid" xmlns="http://www.w3.org/2000/svg" viewBox="0 0 1080 1080">
  <defs>
    <style>
      .cls-1 {
        fill: #12191c;
      }
    </style>
  </defs>
  <path class="cls-1" d="M211.86,216.77c5.82,0,11.52.39,17.1,1.18.09,0,.19.02.28.07,8,1.11,15.71,2.94,23.1,5.48,119.15,31.49,231.95,63.33,358.43-82.26l4.47-4.51c4.47-5.22,9.35-10.06,14.66-14.5l.14-.14c.85-.72,1.73-1.4,2.6-2.1H119.93v136.98c22.79-24.71,55.55-40.21,91.93-40.21Z"/>
  <path class="cls-1" d="M960,960V120h-171.55c28.5,22.67,46.75,57.54,46.75,96.68,0,7.07-.58,13.95-1.74,20.65-24.48,305.39,46.37,439.76,98.12,519.8,5.53,6.75,10.32,14,14.37,21.76.09.09.16.19.21.28h.05c9.57,18.5,14.59,39.63,13.55,62.01-2.93,64.71-56.63,116.67-121.84,117.99-70.1,1.52-127.36-54.45-127.36-123.67,0-6.88.56-13.63,1.68-20.23,1.33-5.96,2.3-12.05,3.84-16.21,1.96-7.21,3.28-9.77,6.42-16.42,84.69-232.85,93.14-389.57-49.3-447.76l-38.75-13.17c-63.82-20.23-295.14-103.44-295.14,52.79,1.12,44.48-6.01,79.12,104.38,89.51,4.75.42,9.52.53,14.31.35,1.07-.05,2.14-.07,3.21-.07,8.1,0,15.97.74,23.6,2.22h.14v.07c58.51,11.15,102.43,62.98,100.89,124.64-1.68,64.15-53.27,116.95-117.86,120.34-71.92,3.81-131.48-53-131.48-123.53-4.12-85.01,27.44-131.36-110.11-124.64-4.75.6-9.59.9-14.52.9-36.39,0-69.16-15.49-91.96-40.19v349.5c19.69-19.14,46.65-30.95,76.39-30.95,60.26,0,109.06,48.43,109.06,108.29s-48.81,108.22-109.06,108.22c-29.74,0-56.7-11.8-76.39-30.94v31.78"/>
</svg>