<?xml version="1.0" encoding="UTF-8"?>
<svg id="Isometric_Grid" data-name="Isometric Grid" xmlns="http://www.w3.org/2000/svg" viewBox="0 0 1080 1080">
  <defs>
    <style>
      .cls-1 {
        fill: #12191c;
      }
    </style>
  </defs>
  <g>
    <path class="cls-1" d="M198.82,82.95c4.99,0,9.88.34,14.66,1.01.08,0,.16.02.24.06,6.86.95,13.47,2.52,19.81,4.7,102.16,26.99,198.88,54.28,307.33-70.51l3.83-3.86c3.83-4.48,8.02-8.62,12.57-12.43l.12-.12c.73-.61,1.49-1.2,2.23-1.8H120v117.41c19.55-21.18,47.63-34.46,78.82-34.46Z"/>
    <polygon class="cls-1" points="415.83 960 464.1 960 415.83 878.66 415.83 960"/>
    <rect class="cls-1" x="120" y="836.38" width="32.93" height="123.62"/>
    <path class="cls-1" d="M960,0h-267.01c24.46,19.45,40.12,49.37,40.12,82.95,0,6.06-.5,11.97-1.5,17.72-21.01,262,39.8,377.28,84.21,445.95,4.75,5.79,8.86,12.01,12.33,18.67.08.08.14.16.18.24h-.06c8.2,15.87,12.51,34.01,11.61,53.21-2.51,55.53-48.54,100.12-104.44,101.25-60.09,1.31-109.17-46.73-109.17-106.12,0-5.91.48-11.69,1.44-17.36,1.14-5.11,1.98-10.34,3.29-13.91,1.68-6.18,2.81-8.38,5.51-14.09,72.6-199.82,79.84-334.3-42.25-384.24l-33.22-11.3c-54.7-17.36-252.99-88.76-252.99,45.3.96,38.17-5.15,67.89,89.48,76.81,4.07.36,8.16.46,12.27.3.92-.04,1.84-.06,2.75-.06,6.94,0,13.69.63,20.23,1.9h.12v.06c50.15,9.57,87.8,54.04,86.48,106.95-1.44,55.05-45.67,100.35-101.03,103.27-61.65,3.27-112.7-45.48-112.7-106-3.53-72.95,23.52-112.72-94.38-106.95-4.07.52-8.22.77-12.45.77-31.2,0-59.28-13.29-78.82-34.49v299.92c16.88-16.43,39.99-26.56,65.48-26.56,51.65,0,93.49,41.56,93.49,92.92s-41.84,92.86-93.49,92.86c-25.49,0-48.6-10.13-65.48-26.55v86.57h135.04v56.38h-38.46v123.62h56.63v-180h63.09v180h20.93v-180h58.61l48.86,82.34v-82.34h58.5v180h14.64l46.46-94.82-43.82-85.18h68.92l19.27,49.95,19.28-49.95h68.92l-43.82,85.18,46.46,94.82h240.49V0Z"/>
    <polygon class="cls-1" points="606.11 960 651.23 960 628.67 905.36 606.11 960"/>
    <line class="cls-1" x1="464.1" y1="960" x2="464.69" y2="961"/>
    <line class="cls-1" x1="651.23" y1="960" x2="651.64" y2="961"/>
    <line class="cls-1" x1="720" y1="961" x2="719.51" y2="960"/>
    <line class="cls-1" x1="537.83" y1="960" x2="537.34" y2="961"/>
    <line class="cls-1" x1="605.7" y1="961" x2="606.11" y2="960"/>
  </g>
  <g>
    <path class="cls-1" d="M161.55,1028.82v16.42c-4.19,1.27-8.22,1.9-12.06,1.9-6.89,0-12.36-1.15-16.4-3.46-4.04-2.3-7.22-5.46-9.54-9.45-2.32-4-3.5-8.59-3.54-13.77.05-5.21,1.23-9.81,3.54-13.81,2.32-4,5.5-7.14,9.54-9.44s9.51-3.44,16.4-3.44c3.85,0,7.87.63,12.06,1.9v16.42c-3.13-1.38-6.33-2.07-9.57-2.07-3.69,0-6.46.86-8.31,2.58-1.86,1.72-2.78,4.34-2.78,7.86s.93,6.15,2.78,7.86c1.85,1.72,4.63,2.58,8.31,2.58,3.25,0,6.44-.69,9.57-2.07Z"/>
    <path class="cls-1" d="M217.04,1045.62h-21.85l-8.85-18.35v18.35h-19.11v-50.6h26.82c3.78,0,7.09.66,9.92,1.97,2.83,1.31,5.05,3.15,6.64,5.5,1.59,2.37,2.39,5.13,2.39,8.26s-.8,5.88-2.39,8.23c-1.59,2.37-3.8,4.22-6.64,5.53l13.07,21.12ZM186.35,1008.36v7.6h1.42c2.03,0,3.48-.29,4.36-.86.88-.58,1.31-1.56,1.31-2.94s-.44-2.36-1.31-2.94c-.88-.58-2.33-.86-4.36-.86h-1.42Z"/>
    <path class="cls-1" d="M240.25,1031.79h16.73v13.83h-36.36v-50.6h35.26v13.83h-15.62v5.01h14.38v12.93h-14.38v5.01Z"/>
    <path class="cls-1" d="M283.95,1038.12l-1.42,7.5h-21.19l14.97-50.6h25.06l14.97,50.6h-21.19l-1.38-7.5h-9.82ZM291.52,1026.12l-2.66-14.28-2.66,14.28h5.32Z"/>
    <path class="cls-1" d="M354.59,995.02v15.76h-10.72v34.84h-19.63v-34.84h-10.72v-15.76h41.06Z"/>
    <path class="cls-1" d="M378.56,1045.62h-19.46v-50.6h19.46v50.6Z"/>
    <path class="cls-1" d="M418.39,995.02h21.22l-17.9,50.6h-21.22l-17.9-50.6h21.19l7.33,25.13,7.29-25.13Z"/>
    <path class="cls-1" d="M463.27,1031.79h16.73v13.83h-36.36v-50.6h35.26v13.83h-15.62v5.01h14.38v12.93h-14.38v5.01Z"/>
  </g>
</svg>