<?xml version="1.0" encoding="UTF-8"?>
<svg id="Isometric_Grid" data-name="Isometric Grid" xmlns="http://www.w3.org/2000/svg" viewBox="0 0 1080 1080">
  <defs>
    <style>
      .cls-1 {
        fill: #12191c;
      }
    </style>
  </defs>
  <polygon class="cls-1" points="416.74 599.86 465.01 599.86 416.74 518.52 416.74 599.86"/>
  <rect class="cls-1" x="120.91" y="476.23" width="32.93" height="123.62"/>
  <polyline class="cls-1" points="120.91 359.86 120.91 419.86 255.95 419.86 255.95 476.23 217.48 476.23 217.48 599.86 274.11 599.86 274.11 419.86 337.21 419.86 337.21 599.86 358.13 599.86 358.13 419.86 416.74 419.86 465.6 502.2 465.6 419.86 524.1 419.86 524.1 599.86 538.73 599.86 585.2 505.04 541.38 419.86 610.3 419.86 629.58 469.8 648.85 419.86 717.77 419.86 673.95 505.04 720.42 599.86 960.91 599.86 960.91 359.86"/>
  <polygon class="cls-1" points="607.02 599.86 652.14 599.86 629.58 545.22 607.02 599.86"/>
  <line class="cls-1" x1="465.01" y1="599.86" x2="465.6" y2="600.86"/>
  <line class="cls-1" x1="652.14" y1="599.86" x2="652.55" y2="600.86"/>
  <line class="cls-1" x1="720.91" y1="600.86" x2="720.42" y2="599.86"/>
  <line class="cls-1" x1="538.73" y1="599.86" x2="538.24" y2="600.86"/>
  <line class="cls-1" x1="606.6" y1="600.86" x2="607.02" y2="599.86"/>
  <g>
    <path class="cls-1" d="M162.46,668.68v16.42c-4.19,1.27-8.22,1.9-12.06,1.9-6.89,0-12.36-1.15-16.4-3.46-4.04-2.3-7.22-5.46-9.54-9.45-2.32-4-3.5-8.59-3.54-13.77.05-5.21,1.23-9.81,3.54-13.81,2.32-4,5.5-7.14,9.54-9.44,4.04-2.29,9.51-3.44,16.4-3.44,3.85,0,7.87.63,12.06,1.9v16.42c-3.13-1.38-6.33-2.07-9.57-2.07-3.69,0-6.46.86-8.31,2.58-1.86,1.72-2.78,4.34-2.78,7.86s.93,6.15,2.78,7.86c1.85,1.72,4.63,2.58,8.31,2.58,3.25,0,6.44-.69,9.57-2.07Z"/>
    <path class="cls-1" d="M217.95,685.48h-21.85l-8.85-18.35v18.35h-19.11v-50.6h26.82c3.78,0,7.09.66,9.92,1.97,2.83,1.31,5.05,3.15,6.64,5.5,1.59,2.37,2.39,5.13,2.39,8.26s-.8,5.88-2.39,8.23c-1.59,2.37-3.8,4.22-6.64,5.53l13.07,21.12ZM187.25,648.22v7.6h1.42c2.03,0,3.48-.29,4.36-.86.88-.58,1.31-1.56,1.31-2.94s-.44-2.36-1.31-2.94c-.88-.58-2.33-.86-4.36-.86h-1.42Z"/>
    <path class="cls-1" d="M241.16,671.65h16.73v13.83h-36.36v-50.6h35.26v13.83h-15.62v5.01h14.38v12.93h-14.38v5.01Z"/>
    <path class="cls-1" d="M284.86,677.98l-1.42,7.5h-21.19l14.97-50.6h25.06l14.97,50.6h-21.19l-1.38-7.5h-9.82ZM292.43,665.98l-2.66-14.28-2.66,14.28h5.32Z"/>
    <path class="cls-1" d="M355.49,634.87v15.76h-10.72v34.84h-19.63v-34.84h-10.72v-15.76h41.06Z"/>
    <path class="cls-1" d="M379.46,685.48h-19.46v-50.6h19.46v50.6Z"/>
    <path class="cls-1" d="M419.3,634.87h21.22l-17.9,50.6h-21.22l-17.9-50.6h21.19l7.33,25.13,7.29-25.13Z"/>
    <path class="cls-1" d="M464.18,671.65h16.73v13.83h-36.36v-50.6h35.26v13.83h-15.62v5.01h14.38v12.93h-14.38v5.01Z"/>
  </g>
</svg>